<svg width="20" height="25" viewBox="0 0 20 25" fill="none" xmlns="http://www.w3.org/2000/svg">
<path d="M13.383 5.147C12.2937 4.84646 11.1617 4.68802 10.0001 4.68802C6.57352 4.68802 3.40457 6.06677 0.828919 8.40467C0.527079 8.67864 0.505573 9.22611 0.769341 9.55582C0.99252 9.83479 1.34818 9.86288 1.60423 9.6322C3.96631 7.50418 6.86608 6.25052 10.0001 6.25052C10.7881 6.25052 11.5612 6.32977 12.3148 6.48224L13.383 5.147Z" fill="#B36500"/>
<path d="M10.0002 9.37552C7.61884 9.37552 5.40117 10.2517 3.54234 11.7602C3.22191 12.0202 3.19374 12.5863 3.46388 12.924C3.67973 13.1938 4.02224 13.2313 4.27932 13.0256C5.57681 11.9873 7.06676 11.2919 8.66738 11.0415L10.0002 9.37552Z" fill="#B36500"/>
<path d="M13.2454 11.569L14.2262 10.343C15.0137 10.718 15.761 11.1946 16.4579 11.7602C16.7783 12.0202 16.8065 12.5863 16.5363 12.924C16.3205 13.1938 15.978 13.2313 15.7209 13.0256C14.9569 12.4142 14.1262 11.9217 13.2454 11.569Z" fill="#B36500"/>
<path d="M10.0002 15.6255L11.167 14.167C12.0608 14.3277 12.9075 14.6702 13.6824 15.1635C14.0387 15.3903 14.0904 15.9814 13.8077 16.3348L13.7889 16.3583C13.5884 16.6088 13.2794 16.6559 13.0249 16.4998C12.1121 15.9399 11.0855 15.6255 10.0002 15.6255Z" fill="#B36500"/>
<path d="M16.131 7.96203L17.0653 6.79407C17.803 7.26231 18.5069 7.80157 19.1713 8.40467C19.4731 8.67864 19.4946 9.22611 19.2309 9.55582C19.0077 9.83479 18.652 9.86288 18.396 9.6322C17.6867 8.99322 16.929 8.43308 16.131 7.96203Z" fill="#B36500"/>
<path d="M11.2758 18.4062C11.5725 18.6266 11.57 19.1319 11.3259 19.437L10.442 20.5418C10.198 20.8469 9.80223 20.8469 9.55816 20.5418L8.67427 19.437C8.4302 19.1319 8.42771 18.6266 8.72442 18.4062C9.09788 18.1286 9.5341 17.9693 10.0001 17.9693C10.4661 17.9693 10.9023 18.1286 11.2758 18.4062Z" fill="#B36500"/>
<path d="M16.7189 2.9302C16.9778 2.6066 17.3975 2.6066 17.6564 2.9302C17.9153 3.25381 17.9153 3.77847 17.6564 4.10208L4.21891 20.899C3.96002 21.2226 3.54029 21.2226 3.28141 20.899C3.02253 20.5753 3.02253 20.0507 3.28141 19.7271L16.7189 2.9302Z" fill="#B36500"/>
</svg>
