<svg width="25" height="25" viewBox="0 0 25 25" fill="none" xmlns="http://www.w3.org/2000/svg">
<path d="M16.7268 5.147C15.3651 4.84646 13.9502 4.68802 12.4982 4.68802C8.21495 4.68802 4.25376 6.06677 1.0342 8.40467C0.656896 8.67864 0.630013 9.22611 0.959723 9.55582C1.2387 9.83479 1.68327 9.86288 2.00333 9.6322C4.95593 7.50418 8.58065 6.25052 12.4982 6.25052C13.4831 6.25052 14.4496 6.32977 15.3915 6.48224L16.7268 5.147Z" fill="#B36500"/>
<path d="M12.4982 9.37552C9.52159 9.37552 6.74951 10.2517 4.42597 11.7602C4.02544 12.0202 3.99023 12.5863 4.3279 12.924C4.59771 13.1938 5.02584 13.2313 5.3472 13.0256C6.96906 11.9873 8.8315 11.2919 10.8323 11.0415L12.4982 9.37552Z" fill="#B36500"/>
<path d="M16.5548 11.569L17.7808 10.343C18.7651 10.718 19.6993 11.1946 20.5704 11.7602C20.9709 12.0202 21.0061 12.5863 20.6684 12.924C20.3986 13.1938 19.9705 13.2313 19.6491 13.0256C18.6942 12.4142 17.6558 11.9217 16.5548 11.569Z" fill="#B36500"/>
<path d="M12.4983 15.6255L13.9568 14.167C15.074 14.3277 16.1324 14.6702 17.1011 15.1635C17.5464 15.3903 17.611 15.9814 17.2577 16.3348L17.2342 16.3583C16.9836 16.6088 16.5973 16.6559 16.2791 16.4998C15.1382 15.9399 13.855 15.6255 12.4983 15.6255Z" fill="#B36500"/>
<path d="M20.1618 7.96203L21.3297 6.79407C22.2517 7.26231 23.1316 7.80157 23.9621 8.40467C24.3394 8.67864 24.3663 9.22611 24.0366 9.55582C23.7576 9.83479 23.3131 9.86288 22.993 9.6322C22.1064 8.99322 21.1593 8.43308 20.1618 7.96203Z" fill="#B36500"/>
<path d="M14.0928 18.4062C14.4637 18.6266 14.4605 19.1319 14.1555 19.437L13.0506 20.5418C12.7455 20.8469 12.2508 20.8469 11.9457 20.5418L10.8409 19.437C10.5358 19.1319 10.5327 18.6266 10.9036 18.4062C11.3704 18.1286 11.9157 17.9693 12.4982 17.9693C13.0807 17.9693 13.6259 18.1286 14.0928 18.4062Z" fill="#B36500"/>
<path d="M20.8967 2.9302C21.2203 2.6066 21.745 2.6066 22.0686 2.9302C22.3922 3.25381 22.3922 3.77847 22.0686 4.10208L5.27168 20.899C4.94808 21.2226 4.42341 21.2226 4.09981 20.899C3.7762 20.5753 3.7762 20.0507 4.09981 19.7271L20.8967 2.9302Z" fill="#B36500"/>
</svg>
