<svg width="25" height="20" viewBox="0 0 25 20" fill="none" xmlns="http://www.w3.org/2000/svg">
<path d="M16.7268 4.11603C15.3651 3.8756 13.9502 3.74885 12.4982 3.74885C8.21495 3.74885 4.25376 4.85185 1.0342 6.72217C0.656896 6.94135 0.630013 7.37932 0.959723 7.64309C1.2387 7.86627 1.68327 7.88874 2.00333 7.7042C4.95593 6.00178 8.58065 4.99885 12.4982 4.99885C13.4831 4.99885 14.4496 5.06225 15.3915 5.18423L16.7268 4.11603Z" fill="#B36500"/>
<path d="M12.4982 7.49885C9.52159 7.49885 6.74951 8.19978 4.42597 9.40659C4.02544 9.61462 3.99023 10.0675 4.3279 10.3376C4.59771 10.5535 5.02584 10.5835 5.3472 10.4189C6.96906 9.58828 8.8315 9.03193 10.8323 8.83163L12.4982 7.49885Z" fill="#B36500"/>
<path d="M16.5548 9.25361L17.7808 8.27286C18.7651 8.57281 19.6993 8.95415 20.5704 9.40659C20.9709 9.61462 21.0061 10.0675 20.6684 10.3376C20.3986 10.5535 19.9705 10.5835 19.6491 10.4189C18.6942 9.92981 17.6558 9.53582 16.5548 9.25361Z" fill="#B36500"/>
<path d="M12.4983 12.4988L13.9568 11.332C15.074 11.4606 16.1324 11.7346 17.1011 12.1293C17.5464 12.3107 17.611 12.7836 17.2577 13.0662L17.2342 13.085C16.9836 13.2855 16.5973 13.3232 16.2791 13.1983C15.1382 12.7504 13.855 12.4989 12.4983 12.4988Z" fill="#B36500"/>
<path d="M20.1618 6.36806L21.3297 5.4337C22.2517 5.80829 23.1316 6.2397 23.9621 6.72217C24.3394 6.94135 24.3663 7.37932 24.0366 7.64309C23.7576 7.86627 23.3131 7.88874 22.993 7.7042C22.1064 7.19302 21.1593 6.7449 20.1618 6.36806Z" fill="#B36500"/>
<path d="M14.0928 14.7234C14.4637 14.8998 14.4605 15.3039 14.1555 15.548L13.0506 16.4319C12.7455 16.676 12.2508 16.676 11.9457 16.4319L10.8409 15.548C10.5358 15.3039 10.5327 14.8998 10.9036 14.7234C11.3704 14.5013 11.9157 14.3738 12.4982 14.3738C13.0807 14.3738 13.6259 14.5013 14.0928 14.7234Z" fill="#B36500"/>
<path d="M20.8967 2.3426C21.2203 2.08372 21.745 2.08372 22.0686 2.3426C22.3922 2.60148 22.3922 3.02122 22.0686 3.2801L5.27168 16.7176C4.94808 16.9765 4.42341 16.9765 4.09981 16.7176C3.7762 16.4587 3.7762 16.039 4.09981 15.7801L20.8967 2.3426Z" fill="#B36500"/>
</svg>
