<svg width="16" height="16" viewBox="0 0 16 16" fill="none" xmlns="http://www.w3.org/2000/svg">
<path d="M10.7064 3.29283C9.83494 3.10048 8.92935 2.99908 8.00008 2.99908C5.25882 2.99908 2.72366 3.88148 0.663135 5.37774C0.421664 5.55308 0.404458 5.90346 0.615473 6.11447C0.794016 6.29302 1.07854 6.31099 1.28338 6.16336C3.17305 4.80142 5.49286 3.99908 8.00008 3.99908C8.63046 3.99908 9.24899 4.0498 9.85182 4.14738L10.7064 3.29283Z" fill="#B36500"/>
<path d="M8.00012 5.99908C6.09507 5.99908 4.32094 6.55983 2.83387 7.52527C2.57753 7.6917 2.55499 8.054 2.77111 8.27011C2.94378 8.44279 3.21779 8.46677 3.42346 8.33511C4.46145 7.67062 5.65341 7.22554 6.9339 7.0653L8.00012 5.99908Z" fill="#B36500"/>
<path d="M10.5963 7.40289L11.3809 6.61829C12.0109 6.85825 12.6088 7.16332 13.1663 7.52527C13.4226 7.6917 13.4452 8.054 13.2291 8.27011C13.0564 8.44279 12.7824 8.46677 12.5767 8.33511C11.9655 7.94385 11.3009 7.62865 10.5963 7.40289Z" fill="#B36500"/>
<path d="M8.00018 9.99908L8.93363 9.06562C9.64861 9.16845 10.326 9.38765 10.946 9.7034C11.2309 9.84854 11.2723 10.2269 11.0462 10.453L11.0311 10.468C10.8707 10.6284 10.6235 10.6585 10.4199 10.5586C9.6897 10.2003 8.86844 9.99909 8.00018 9.99908Z" fill="#B36500"/>
<path d="M12.9048 5.09445L13.6523 4.34696C14.2424 4.64663 14.8055 4.99176 15.337 5.37774C15.5785 5.55308 15.5957 5.90346 15.3847 6.11447C15.2061 6.29302 14.9216 6.31099 14.7168 6.16336C14.1494 5.75441 13.5432 5.39592 12.9048 5.09445Z" fill="#B36500"/>
<path d="M9.02062 11.7787C9.25799 11.9198 9.256 12.2432 9.06074 12.4384L8.35363 13.1455C8.15837 13.3408 7.84179 13.3408 7.64653 13.1455L6.93942 12.4384C6.74416 12.2432 6.74217 11.9198 6.97953 11.7787C7.2783 11.6011 7.62728 11.4991 8.00008 11.4991C8.37288 11.4991 8.72186 11.6011 9.02062 11.7787Z" fill="#B36500"/>
<path d="M13.3751 1.87408C13.5822 1.66697 13.918 1.66697 14.1251 1.87408C14.3322 2.08119 14.3322 2.41697 14.1251 2.62408L3.37513 13.3741C3.16802 13.5812 2.83223 13.5812 2.62513 13.3741C2.41802 13.167 2.41802 12.8312 2.62513 12.6241L13.3751 1.87408Z" fill="#B36500"/>
</svg>
