<svg width="16" height="17" viewBox="0 0 16 17" fill="none" xmlns="http://www.w3.org/2000/svg">
<g clip-path="url(#clip0_100_129714)">
<path d="M4 0.5C3.46957 0.5 2.96086 0.710714 2.58579 1.08579C2.21071 1.46086 2 1.96957 2 2.5V14.5C2 15.0304 2.21071 15.5391 2.58579 15.9142C2.96086 16.2893 3.46957 16.5 4 16.5H12C12.5304 16.5 13.0391 16.2893 13.4142 15.9142C13.7893 15.5391 14 15.0304 14 14.5V2.5C14 1.96957 13.7893 1.46086 13.4142 1.08579C13.0391 0.710714 12.5304 0.5 12 0.5H4ZM4 1.5H12C12.2652 1.5 12.5196 1.60536 12.7071 1.79289C12.8946 1.98043 13 2.23478 13 2.5V14.5C13 14.7652 12.8946 15.0196 12.7071 15.2071C12.5196 15.3946 12.2652 15.5 12 15.5H4C3.73478 15.5 3.48043 15.3946 3.29289 15.2071C3.10536 15.0196 3 14.7652 3 14.5V2.5C3 2.23478 3.10536 1.98043 3.29289 1.79289C3.48043 1.60536 3.73478 1.5 4 1.5Z" fill="#212529"/>
<path d="M4.603 12.587C4.40809 12.509 4.25106 12.3585 4.165 12.167C3.97 11.779 4.035 11.391 4.245 11.065C4.443 10.758 4.771 10.497 5.142 10.278C5.61194 10.0115 6.10869 9.79527 6.624 9.633C7.02418 8.91358 7.37888 8.16979 7.686 7.406C7.50238 6.98877 7.35841 6.55519 7.256 6.111C7.17 5.711 7.137 5.315 7.21 4.975C7.285 4.621 7.484 4.303 7.86 4.152C8.052 4.075 8.26 4.032 8.462 4.075C8.56361 4.09663 8.65913 4.14061 8.74164 4.20374C8.82414 4.26687 8.89156 4.34758 8.939 4.44C9.027 4.604 9.059 4.796 9.066 4.978C9.073 5.165 9.054 5.373 9.019 5.592C8.935 6.102 8.749 6.726 8.499 7.386C8.77489 7.97602 9.10286 8.54025 9.479 9.072C9.9241 9.03684 10.3718 9.05362 10.813 9.122C11.177 9.187 11.547 9.317 11.773 9.587C11.893 9.731 11.966 9.907 11.973 10.105C11.98 10.297 11.926 10.487 11.835 10.668C11.7562 10.8357 11.634 10.9794 11.481 11.084C11.3298 11.1826 11.1513 11.2309 10.971 11.222C10.64 11.208 10.317 11.026 10.038 10.805C9.69877 10.5245 9.39307 10.2057 9.127 9.855C8.45075 9.9317 7.78252 10.0676 7.13 10.261C6.83084 10.791 6.4894 11.296 6.109 11.771C5.819 12.121 5.501 12.426 5.183 12.558C5.00029 12.6407 4.79305 12.651 4.603 12.587ZM5.982 10.686C5.816 10.762 5.662 10.842 5.523 10.924C5.195 11.118 4.982 11.307 4.876 11.471C4.782 11.616 4.78 11.721 4.836 11.832C4.846 11.854 4.856 11.868 4.862 11.876C4.87393 11.8728 4.88562 11.8688 4.897 11.864C5.034 11.808 5.252 11.629 5.532 11.292C5.69124 11.097 5.8414 10.8948 5.982 10.686ZM7.622 9.356C7.95591 9.278 8.29286 9.21361 8.632 9.163C8.44984 8.88441 8.27968 8.59814 8.122 8.305C7.96518 8.65961 7.79845 9.00974 7.622 9.355V9.356ZM10.068 9.806C10.218 9.968 10.364 10.106 10.503 10.216C10.743 10.406 10.91 10.469 11.001 10.472C11.0254 10.4752 11.0501 10.4699 11.071 10.457C11.1126 10.4241 11.145 10.3811 11.165 10.332C11.2006 10.2711 11.2208 10.2025 11.224 10.132C11.2234 10.1085 11.2142 10.0861 11.198 10.069C11.146 10.007 10.998 9.917 10.68 9.86C10.4777 9.82619 10.2731 9.80847 10.068 9.807V9.806ZM8.078 6.3C8.16216 6.02852 8.22896 5.75196 8.278 5.472C8.309 5.284 8.321 5.129 8.316 5.007C8.31628 4.93969 8.30547 4.8728 8.284 4.809C8.23398 4.81519 8.18512 4.82867 8.139 4.849C8.052 4.884 7.981 4.955 7.943 5.132C7.903 5.324 7.913 5.601 7.989 5.954C8.013 6.065 8.043 6.181 8.079 6.3H8.078Z" fill="#212529"/>
</g>
<defs>
<clipPath id="clip0_100_129714">
<rect width="16" height="16" fill="white" transform="translate(0 0.5)"/>
</clipPath>
</defs>
</svg>
